<svg xmlns="http://www.w3.org/2000/svg" version="1.1" width="300px" height="300px"
    style="shape-rendering:geometricPrecision; text-rendering:geometricPrecision; image-rendering:optimizeQuality; fill-rule:evenodd; clip-rule:evenodd"
    xmlns:xlink="http://www.w3.org/1999/xlink">
    <g>
        <path style="opacity:0.924" fill="#000000"
            d="M 74.5,13.5 C 77.5184,13.3354 80.5184,13.502 83.5,14C 97.9384,21.3025 112.438,28.4692 127,35.5C 132.895,32.8028 138.728,29.9695 144.5,27C 147.833,26.3333 151.167,26.3333 154.5,27C 167.902,33.4506 181.069,40.284 194,47.5C 194.184,55.0795 194.684,62.5795 195.5,70C 212.061,77.8628 228.228,86.3628 244,95.5C 244.667,109.833 244.667,124.167 244,138.5C 236.546,143.977 228.38,147.977 219.5,150.5C 210.943,147.807 202.777,144.14 195,139.5C 194.219,140.944 194.386,142.277 195.5,143.5C 211.902,151.45 228.068,159.784 244,168.5C 244.667,183.167 244.667,197.833 244,212.5C 236.667,217.833 228.667,221.833 220,224.5C 211.567,221.536 203.401,217.869 195.5,213.5C 194.667,226.154 194.167,238.82 194,251.5C 181.069,258.716 167.902,265.549 154.5,272C 151.167,272.667 147.833,272.667 144.5,272C 131.098,265.549 117.931,258.716 105,251.5C 104.833,223.494 104.333,195.494 103.5,167.5C 87.0982,159.55 70.9316,151.216 55,142.5C 54.3333,127.833 54.3333,113.167 55,98.5C 62.5292,93.3169 70.6959,89.6502 79.5,87.5C 87.8999,89.6947 95.8999,93.028 103.5,97.5C 104.731,96.3493 104.731,95.1827 103.5,94C 86.9386,86.1372 70.7719,77.6372 55,68.5C 54.3333,53.8333 54.3333,39.1667 55,24.5C 61.4814,20.6793 67.9814,17.0126 74.5,13.5 Z" />
    </g>
    <g>
        <path style="opacity:1" fill="#c47493"
            d="M 78.5,18.5 C 78.8132,21.8374 77.4799,24.1707 74.5,25.5C 69.8482,26.3281 65.8482,28.4947 62.5,32C 61.552,32.4828 60.552,32.6495 59.5,32.5C 59.2148,30.712 59.5481,29.0453 60.5,27.5C 66.5266,24.4867 72.5266,21.4867 78.5,18.5 Z" />
    </g>
    <g>
        <path style="opacity:1" fill="#ac1d54"
            d="M 74.5,26.5 C 88.8451,33.0891 103.012,40.0891 117,47.5C 119.659,45.7535 122.492,44.4202 125.5,43.5C 126.492,45.0265 127.992,45.6932 130,45.5C 131.878,45.3038 133.712,44.9705 135.5,44.5C 146.934,49.7164 158.267,55.2164 169.5,61C 166.264,62.7862 162.93,64.2862 159.5,65.5C 149.517,60.8422 139.517,56.1755 129.5,51.5C 126.167,52.8333 122.833,54.1667 119.5,55.5C 116.387,54.4441 113.387,53.1108 110.5,51.5C 109.808,52.0253 109.308,52.6919 109,53.5C 94.6936,46.2647 80.527,38.9314 66.5,31.5C 69.1667,29.8333 71.8333,28.1667 74.5,26.5 Z" />
    </g>
    <g>
        <path style="opacity:1" fill="#962551"
            d="M 78.5,18.5 C 94.8176,25.9921 110.818,33.9921 126.5,42.5C 125.833,42.5 125.5,42.8333 125.5,43.5C 122.492,44.4202 119.659,45.7535 117,47.5C 103.012,40.0891 88.8451,33.0891 74.5,26.5C 74.5,26.1667 74.5,25.8333 74.5,25.5C 77.4799,24.1707 78.8132,21.8374 78.5,18.5 Z" />
    </g>
    <g>
        <path style="opacity:1" fill="#9c1a4c"
            d="M 65.5,31.5 C 65.8333,31.5 66.1667,31.5 66.5,31.5C 80.527,38.9314 94.6936,46.2647 109,53.5C 109.308,52.6919 109.808,52.0253 110.5,51.5C 113.387,53.1108 116.387,54.4441 119.5,55.5C 122.833,54.1667 126.167,52.8333 129.5,51.5C 139.517,56.1755 149.517,60.8422 159.5,65.5C 156.724,67.3924 153.724,69.0591 150.5,70.5C 149.833,78.8333 149.167,87.1667 148.5,95.5C 139.167,90.8333 129.833,86.1667 120.5,81.5C 119.511,85.1073 119.177,88.774 119.5,92.5C 113.651,91.2573 109.318,88.0906 106.5,83C 100.76,80.1302 95.0937,77.2968 89.5,74.5C 89.8076,72.076 89.4742,69.7427 88.5,67.5C 82.5,64.5 76.5,61.5 70.5,58.5C 69.5481,60.0453 69.2148,61.712 69.5,63.5C 66.1401,63.6159 62.8067,63.9492 59.5,64.5C 59.5,64.1667 59.5,63.8333 59.5,63.5C 61.3519,62.9111 63.1852,62.2444 65,61.5C 65.4998,51.5056 65.6665,41.5056 65.5,31.5 Z" />
    </g>
    <g>
        <path style="opacity:1" fill="#b55379"
            d="M 74.5,25.5 C 74.5,25.8333 74.5,26.1667 74.5,26.5C 71.8333,28.1667 69.1667,29.8333 66.5,31.5C 66.1667,31.5 65.8333,31.5 65.5,31.5C 64.8826,31.6107 64.3826,31.944 64,32.5C 63.8321,41.8511 63.3321,51.1845 62.5,60.5C 61.5832,61.1272 60.5832,61.4606 59.5,61.5C 59.5,51.8333 59.5,42.1667 59.5,32.5C 60.552,32.6495 61.552,32.4828 62.5,32C 65.8482,28.4947 69.8482,26.3281 74.5,25.5 Z" />
    </g>
    <g>
        <path style="opacity:1" fill="#bc708d"
            d="M 149.5,31.5 C 149.649,32.552 149.483,33.552 149,34.5C 144.774,37.3662 140.274,39.8662 135.5,42C 133.455,42.4901 131.455,42.3235 129.5,41.5C 135.849,37.6588 142.516,34.3255 149.5,31.5 Z" />
    </g>
    <g>
        <path style="opacity:1" fill="#a92659"
            d="M 150.5,31.5 C 163.691,37.9281 176.691,44.5947 189.5,51.5C 188.508,51.3284 187.842,51.6618 187.5,52.5C 184.348,54.2535 181.015,55.0869 177.5,55C 166.934,49.5497 156.267,44.383 145.5,39.5C 148.797,37.8665 150.464,35.1999 150.5,31.5 Z" />
    </g>
    <g>
        <path style="opacity:1" fill="#a73963"
            d="M 65.5,31.5 C 65.6665,41.5056 65.4998,51.5056 65,61.5C 63.1852,62.2444 61.3519,62.9111 59.5,63.5C 59.5,62.8333 59.5,62.1667 59.5,61.5C 60.5832,61.4606 61.5832,61.1272 62.5,60.5C 63.3321,51.1845 63.8321,41.8511 64,32.5C 64.3826,31.944 64.8826,31.6107 65.5,31.5 Z" />
    </g>
    <g>
        <path style="opacity:1" fill="#ba537b"
            d="M 149.5,31.5 C 149.833,31.5 150.167,31.5 150.5,31.5C 150.464,35.1999 148.797,37.8665 145.5,39.5C 141.849,40.6589 138.515,42.3256 135.5,44.5C 133.712,44.9705 131.878,45.3038 130,45.5C 127.992,45.6932 126.492,45.0265 125.5,43.5C 125.5,42.8333 125.833,42.5 126.5,42.5C 127.391,41.8902 128.391,41.5569 129.5,41.5C 131.455,42.3235 133.455,42.4901 135.5,42C 140.274,39.8662 144.774,37.3662 149,34.5C 149.483,33.552 149.649,32.552 149.5,31.5 Z" />
    </g>
    <g>
        <path style="opacity:1" fill="#901846"
            d="M 145.5,39.5 C 156.267,44.383 166.934,49.5497 177.5,55C 181.015,55.0869 184.348,54.2535 187.5,52.5C 185.479,58.2899 184.979,64.2899 186,70.5C 186.816,71.8228 187.983,72.4894 189.5,72.5C 190.984,74.0737 192.651,75.407 194.5,76.5C 193.469,77.2485 192.302,77.9152 191,78.5C 190.383,79.4491 190.549,80.2825 191.5,81C 205.206,87.6153 218.706,94.4486 232,101.5C 233.128,99.6547 233.628,97.6547 233.5,95.5C 234.71,95.9321 235.71,96.5987 236.5,97.5C 235.21,98.0577 234.377,99.0577 234,100.5C 233.501,105.155 233.334,109.821 233.5,114.5C 228.833,116.5 224.167,118.5 219.5,120.5C 219.334,116.486 219.501,112.486 220,108.5C 222.916,106.959 225.749,105.293 228.5,103.5C 225.423,101.295 222.09,99.6284 218.5,98.5C 202.384,89.9411 186.05,81.6078 169.5,73.5C 166.276,74.9409 163.276,76.6076 160.5,78.5C 159.507,86.6499 159.174,94.9832 159.5,103.5C 156.738,104.38 154.071,105.546 151.5,107C 150.167,107.667 148.833,107.667 147.5,107C 137.948,102.392 128.615,97.559 119.5,92.5C 119.177,88.774 119.511,85.1073 120.5,81.5C 129.833,86.1667 139.167,90.8333 148.5,95.5C 149.167,87.1667 149.833,78.8333 150.5,70.5C 153.724,69.0591 156.724,67.3924 159.5,65.5C 162.93,64.2862 166.264,62.7862 169.5,61C 158.267,55.2164 146.934,49.7164 135.5,44.5C 138.515,42.3256 141.849,40.6589 145.5,39.5 Z" />
    </g>
    <g>
        <path style="opacity:1" fill="#570e2b"
            d="M 189.5,51.5 C 189.5,58.5 189.5,65.5 189.5,72.5C 187.983,72.4894 186.816,71.8228 186,70.5C 184.979,64.2899 185.479,58.2899 187.5,52.5C 187.842,51.6618 188.508,51.3284 189.5,51.5 Z" />
    </g>
    <g>
        <path style="opacity:1" fill="#ad1c54"
            d="M 218.5,98.5 C 215.724,100.392 212.724,102.059 209.5,103.5C 192.95,95.3922 176.616,87.0589 160.5,78.5C 163.276,76.6076 166.276,74.9409 169.5,73.5C 186.05,81.6078 202.384,89.9411 218.5,98.5 Z" />
    </g>
    <g>
        <path style="opacity:1" fill="#681133"
            d="M 107.5,89.5 C 92.3094,82.072 77.3094,74.4053 62.5,66.5C 66.4033,65.6902 70.4033,66.0236 74.5,67.5C 84.8333,73.3333 95.1667,79.1667 105.5,85C 107.037,86.1096 107.703,87.6096 107.5,89.5 Z" />
    </g>
    <g>
        <path style="opacity:1" fill="#9a2654"
            d="M 194.5,76.5 C 207.627,82.5635 220.627,88.8968 233.5,95.5C 233.628,97.6547 233.128,99.6547 232,101.5C 218.706,94.4486 205.206,87.6153 191.5,81C 190.549,80.2825 190.383,79.4491 191,78.5C 192.302,77.9152 193.469,77.2485 194.5,76.5 Z" />
    </g>
    <g>
        <path style="opacity:1" fill="#99194a"
            d="M 160.5,78.5 C 176.616,87.0589 192.95,95.3922 209.5,103.5C 212.724,102.059 215.724,100.392 218.5,98.5C 222.09,99.6284 225.423,101.295 228.5,103.5C 225.749,105.293 222.916,106.959 220,108.5C 219.501,112.486 219.334,116.486 219.5,120.5C 219.824,124.555 219.491,128.555 218.5,132.5C 198.934,122.55 179.268,112.884 159.5,103.5C 159.174,94.9832 159.507,86.6499 160.5,78.5 Z" />
    </g>
    <g>
        <path style="opacity:1" fill="#ac5275"
            d="M 109.5,93.5 C 110.822,93.33 111.989,93.6634 113,94.5C 113.259,97.5867 113.759,100.587 114.5,103.5C 113.524,109.201 110.357,110.868 105,108.5C 104.51,107.207 104.343,105.873 104.5,104.5C 105.807,105.153 107.14,105.82 108.5,106.5C 109.492,102.217 109.826,97.8839 109.5,93.5 Z" />
    </g>
    <g>
        <path style="opacity:1" fill="#bd708e"
            d="M 79.5,92.5 C 79.7135,94.1439 79.3802,95.6439 78.5,97C 74.8333,98 71.1667,99 67.5,100C 66.2125,101.41 65.0458,102.91 64,104.5C 62.6703,103.418 61.1703,102.751 59.5,102.5C 65.849,98.6588 72.5157,95.3255 79.5,92.5 Z" />
    </g>
    <g>
        <path style="opacity:1" fill="#ac1d54"
            d="M 75.5,99.5 C 86.2821,105.392 97.2821,111.059 108.5,116.5C 109.833,119.833 109.833,123.167 108.5,126.5C 105.596,124.88 102.596,123.547 99.5,122.5C 88.4843,116.325 77.151,110.659 65.5,105.5C 68.6931,103.318 72.0265,101.318 75.5,99.5 Z" />
    </g>
    <g>
        <path style="opacity:1" fill="#941b49"
            d="M 81.5,93.5 C 89.2928,96.8963 96.9594,100.563 104.5,104.5C 104.343,105.873 104.51,107.207 105,108.5C 110.357,110.868 113.524,109.201 114.5,103.5C 119.625,105.562 124.625,107.896 129.5,110.5C 129.334,114.514 129.501,118.514 130,122.5C 133,124.167 136,125.833 139,127.5C 139.827,131.541 139.66,135.541 138.5,139.5C 135.833,138.167 133.167,136.833 130.5,135.5C 129.509,139.445 129.176,143.445 129.5,147.5C 122.948,144.307 116.448,140.974 110,137.5C 109.501,141.486 109.334,145.486 109.5,149.5C 109.631,150.376 109.298,151.043 108.5,151.5C 105.833,150.167 103.167,148.833 100.5,147.5C 99.5078,143.217 99.1744,138.884 99.5,134.5C 99.5,130.5 99.5,126.5 99.5,122.5C 102.596,123.547 105.596,124.88 108.5,126.5C 109.833,123.167 109.833,119.833 108.5,116.5C 97.2821,111.059 86.2821,105.392 75.5,99.5C 79.205,99.1285 81.205,97.1285 81.5,93.5 Z" />
    </g>
    <g>
        <path style="opacity:1" fill="#861742"
            d="M 65.5,105.5 C 77.151,110.659 88.4843,116.325 99.5,122.5C 99.5,126.5 99.5,130.5 99.5,134.5C 88.1667,128.833 76.8333,123.167 65.5,117.5C 64.8333,117.5 64.5,117.167 64.5,116.5C 64.3227,112.766 64.6561,109.099 65.5,105.5 Z" />
    </g>
    <g>
        <path style="opacity:1" fill="#ac5778"
            d="M 79.5,92.5 C 80.4916,92.3284 81.1583,92.6618 81.5,93.5C 81.205,97.1285 79.205,99.1285 75.5,99.5C 72.0265,101.318 68.6931,103.318 65.5,105.5C 64.6561,109.099 64.3227,112.766 64.5,116.5C 62.7162,116.107 61.0495,115.441 59.5,114.5C 59.5,110.5 59.5,106.5 59.5,102.5C 61.1703,102.751 62.6703,103.418 64,104.5C 65.0458,102.91 66.2125,101.41 67.5,100C 71.1667,99 74.8333,98 78.5,97C 79.3802,95.6439 79.7135,94.1439 79.5,92.5 Z" />
    </g>
    <g>
        <path style="opacity:1" fill="#5a0f2c"
            d="M 239.5,99.5 C 239.5,100.5 239.5,101.5 239.5,102.5C 238.883,102.611 238.383,102.944 238,103.5C 236.984,112.807 236.317,122.14 236,131.5C 232.636,135.265 228.469,137.599 223.5,138.5C 226.849,136.066 230.349,133.733 234,131.5C 235.15,122.209 235.816,112.876 236,103.5C 237.405,102.269 238.571,100.936 239.5,99.5 Z" />
    </g>
    <g>
        <path style="opacity:1" fill="#b44e75"
            d="M 59.5,114.5 C 61.0495,115.441 62.7162,116.107 64.5,116.5C 64.5,117.167 64.8333,117.5 65.5,117.5C 65.8293,123.537 65.4959,129.537 64.5,135.5C 62.6396,136.26 60.973,137.26 59.5,138.5C 59.5,130.5 59.5,122.5 59.5,114.5 Z" />
    </g>
    <g>
        <path style="opacity:1" fill="#871642"
            d="M 119.5,92.5 C 128.615,97.559 137.948,102.392 147.5,107C 148.833,107.667 150.167,107.667 151.5,107C 154.071,105.546 156.738,104.38 159.5,103.5C 179.268,112.884 198.934,122.55 218.5,132.5C 219.491,128.555 219.824,124.555 219.5,120.5C 224.167,118.5 228.833,116.5 233.5,114.5C 233.666,118.514 233.499,122.514 233,126.5C 228.912,128.794 224.745,130.961 220.5,133C 219.62,134.356 219.286,135.856 219.5,137.5C 211.181,134.843 203.181,131.343 195.5,127C 192.5,126.333 189.5,126.333 186.5,127C 185.153,131.76 184.153,136.926 183.5,142.5C 183.747,143.713 184.414,144.38 185.5,144.5C 186.514,145.674 187.847,146.34 189.5,146.5C 190.833,147.5 192.167,148.5 193.5,149.5C 191.169,150.317 188.669,150.984 186,151.5C 184.739,151.241 183.739,150.574 183,149.5C 182.955,146.666 182.121,144.166 180.5,142C 182.003,137.645 183.336,133.145 184.5,128.5C 183.086,127.376 181.586,126.376 180,125.5C 179.798,127.256 179.298,128.922 178.5,130.5C 175.833,131.833 173.167,133.167 170.5,134.5C 169.508,138.783 169.174,143.116 169.5,147.5C 166.527,148.987 163.527,150.487 160.5,152C 177.037,160.769 193.704,169.269 210.5,177.5C 213.719,179.027 216.885,180.693 220,182.5C 226.488,179.684 232.321,176.017 237.5,171.5C 238.492,171.328 239.158,171.662 239.5,172.5C 238.833,172.5 238.5,172.833 238.5,173.5C 236.589,173.574 235.422,174.574 235,176.5C 234.53,182.175 234.697,187.841 235.5,193.5C 235.327,197.541 234.827,201.541 234,205.5C 229.144,209.76 223.477,212.427 217,213.5C 210.226,210.53 203.393,207.697 196.5,205C 195.619,204.292 194.953,203.458 194.5,202.5C 201.236,203.864 207.569,206.364 213.5,210C 215.473,210.495 217.473,210.662 219.5,210.5C 219.5,209.167 219.5,207.833 219.5,206.5C 223.931,204.785 228.265,202.785 232.5,200.5C 233.833,196.5 233.833,192.5 232.5,188.5C 228.394,190.636 224.228,192.636 220,194.5C 199.745,184.622 179.578,174.622 159.5,164.5C 156.167,166.167 152.833,167.833 149.5,169.5C 136.167,162.833 122.833,156.167 109.5,149.5C 109.334,145.486 109.501,141.486 110,137.5C 116.448,140.974 122.948,144.307 129.5,147.5C 136.052,150.693 142.552,154.026 149,157.5C 149.667,145.167 149.667,132.833 149,120.5C 142.552,117.026 136.052,113.693 129.5,110.5C 124.625,107.896 119.625,105.562 114.5,103.5C 113.759,100.587 113.259,97.5867 113,94.5C 111.989,93.6634 110.822,93.33 109.5,93.5C 109.771,91.6203 109.104,90.287 107.5,89.5C 107.703,87.6096 107.037,86.1096 105.5,85C 95.1667,79.1667 84.8333,73.3333 74.5,67.5C 70.4033,66.0236 66.4033,65.6902 62.5,66.5C 60.9731,66.573 59.9731,65.9063 59.5,64.5C 62.8067,63.9492 66.1401,63.6159 69.5,63.5C 69.2148,61.712 69.5481,60.0453 70.5,58.5C 76.5,61.5 82.5,64.5 88.5,67.5C 89.4742,69.7427 89.8076,72.076 89.5,74.5C 95.0937,77.2968 100.76,80.1302 106.5,83C 109.318,88.0906 113.651,91.2573 119.5,92.5 Z" />
    </g>
    <g>
        <path style="opacity:1" fill="#9f1a4d"
            d="M 65.5,117.5 C 76.8333,123.167 88.1667,128.833 99.5,134.5C 99.1744,138.884 99.5078,143.217 100.5,147.5C 103.167,148.833 105.833,150.167 108.5,151.5C 109.298,151.043 109.631,150.376 109.5,149.5C 122.833,156.167 136.167,162.833 149.5,169.5C 149.824,173.555 149.491,177.555 148.5,181.5C 139.167,176.833 129.833,172.167 120.5,167.5C 119.833,171.167 119.167,174.833 118.5,178.5C 117.583,177.873 116.583,177.539 115.5,177.5C 115.5,173.167 115.5,168.833 115.5,164.5C 113.5,164.5 111.5,164.5 109.5,164.5C 109.5,163.833 109.167,163.5 108.5,163.5C 108.739,161.533 108.406,159.699 107.5,158C 95.13,151.646 82.7967,145.646 70.5,140C 67.633,139.199 64.9664,139.366 62.5,140.5C 61.2905,140.068 60.2905,139.401 59.5,138.5C 60.973,137.26 62.6396,136.26 64.5,135.5C 65.4959,129.537 65.8293,123.537 65.5,117.5 Z" />
    </g>
    <g>
        <path style="opacity:1" fill="#430a20"
            d="M 239.5,102.5 C 239.667,113.505 239.5,124.505 239,135.5C 232.578,138.961 226.078,142.294 219.5,145.5C 218.817,145.137 218.15,144.804 217.5,144.5C 218.84,141.827 220.84,139.827 223.5,138.5C 228.469,137.599 232.636,135.265 236,131.5C 236.317,122.14 236.984,112.807 238,103.5C 238.383,102.944 238.883,102.611 239.5,102.5 Z" />
    </g>
    <g>
        <path style="opacity:1" fill="#751339"
            d="M 236.5,97.5 C 238.027,97.427 239.027,98.0937 239.5,99.5C 238.571,100.936 237.405,102.269 236,103.5C 235.816,112.876 235.15,122.209 234,131.5C 230.349,133.733 226.849,136.066 223.5,138.5C 220.183,139.221 216.849,139.388 213.5,139C 207.427,135.964 201.427,132.964 195.5,130C 193.167,129.333 190.833,129.333 188.5,130C 186.525,134.504 185.525,139.337 185.5,144.5C 184.414,144.38 183.747,143.713 183.5,142.5C 184.153,136.926 185.153,131.76 186.5,127C 189.5,126.333 192.5,126.333 195.5,127C 203.181,131.343 211.181,134.843 219.5,137.5C 219.286,135.856 219.62,134.356 220.5,133C 224.745,130.961 228.912,128.794 233,126.5C 233.499,122.514 233.666,118.514 233.5,114.5C 233.334,109.821 233.501,105.155 234,100.5C 234.377,99.0577 235.21,98.0577 236.5,97.5 Z" />
    </g>
    <g>
        <path style="opacity:1" fill="#9e1a4d"
            d="M 129.5,110.5 C 136.052,113.693 142.552,117.026 149,120.5C 149.667,132.833 149.667,145.167 149,157.5C 142.552,154.026 136.052,150.693 129.5,147.5C 129.176,143.445 129.509,139.445 130.5,135.5C 133.167,136.833 135.833,138.167 138.5,139.5C 139.66,135.541 139.827,131.541 139,127.5C 136,125.833 133,124.167 130,122.5C 129.501,118.514 129.334,114.514 129.5,110.5 Z" />
    </g>
    <g>
        <path style="opacity:1" fill="#550e29"
            d="M 223.5,138.5 C 220.84,139.827 218.84,141.827 217.5,144.5C 208.282,139.974 199.115,135.308 190,130.5C 189.501,135.823 189.334,141.156 189.5,146.5C 187.847,146.34 186.514,145.674 185.5,144.5C 185.525,139.337 186.525,134.504 188.5,130C 190.833,129.333 193.167,129.333 195.5,130C 201.427,132.964 207.427,135.964 213.5,139C 216.849,139.388 220.183,139.221 223.5,138.5 Z" />
    </g>
    <g>
        <path style="opacity:1" fill="#ad1c54"
            d="M 169.5,147.5 C 186.268,155.383 202.934,163.55 219.5,172C 216.436,173.859 213.436,175.692 210.5,177.5C 193.704,169.269 177.037,160.769 160.5,152C 163.527,150.487 166.527,148.987 169.5,147.5 Z" />
    </g>
    <g>
        <path style="opacity:1" fill="#761339"
            d="M 62.5,140.5 C 64.9664,139.366 67.633,139.199 70.5,140C 82.7967,145.646 95.13,151.646 107.5,158C 108.406,159.699 108.739,161.533 108.5,163.5C 93.1667,155.833 77.8333,148.167 62.5,140.5 Z" />
    </g>
    <g>
        <path style="opacity:1" fill="#9d1a4c"
            d="M 159.5,164.5 C 179.578,174.622 199.745,184.622 220,194.5C 224.228,192.636 228.394,190.636 232.5,188.5C 233.833,192.5 233.833,196.5 232.5,200.5C 228.265,202.785 223.931,204.785 219.5,206.5C 213.067,203.784 206.734,200.784 200.5,197.5C 199.719,198.729 199.219,200.062 199,201.5C 193.859,197.691 188.692,197.691 183.5,201.5C 175.818,196.992 167.818,192.992 159.5,189.5C 159.5,181.167 159.5,172.833 159.5,164.5 Z" />
    </g>
    <g>
        <path style="opacity:1" fill="#941d4b"
            d="M 193.5,149.5 C 208.484,156.325 223.151,163.659 237.5,171.5C 232.321,176.017 226.488,179.684 220,182.5C 216.885,180.693 213.719,179.027 210.5,177.5C 213.436,175.692 216.436,173.859 219.5,172C 202.934,163.55 186.268,155.383 169.5,147.5C 169.174,143.116 169.508,138.783 170.5,134.5C 173.167,133.167 175.833,131.833 178.5,130.5C 179.298,128.922 179.798,127.256 180,125.5C 181.586,126.376 183.086,127.376 184.5,128.5C 183.336,133.145 182.003,137.645 180.5,142C 182.121,144.166 182.955,146.666 183,149.5C 183.739,150.574 184.739,151.241 186,151.5C 188.669,150.984 191.169,150.317 193.5,149.5 Z" />
    </g>
    <g>
        <path style="opacity:1" fill="#931848"
            d="M 159.5,164.5 C 159.5,172.833 159.5,181.167 159.5,189.5C 150.564,191.428 147.064,197.094 149,206.5C 137.885,200.692 126.718,195.026 115.5,189.5C 115.5,185.5 115.5,181.5 115.5,177.5C 116.583,177.539 117.583,177.873 118.5,178.5C 119.167,174.833 119.833,171.167 120.5,167.5C 129.833,172.167 139.167,176.833 148.5,181.5C 149.491,177.555 149.824,173.555 149.5,169.5C 152.833,167.833 156.167,166.167 159.5,164.5 Z" />
    </g>
    <g>
        <path style="opacity:1" fill="#a53c65"
            d="M 109.5,164.5 C 111.5,164.5 113.5,164.5 115.5,164.5C 115.5,168.833 115.5,173.167 115.5,177.5C 115.5,181.5 115.5,185.5 115.5,189.5C 114.206,193.733 114.206,198.066 115.5,202.5C 115.833,216.516 115.499,230.516 114.5,244.5C 112.805,245.174 111.138,245.841 109.5,246.5C 109.5,245.833 109.5,245.167 109.5,244.5C 110.708,243.766 112.041,243.433 113.5,243.5C 113.17,218.479 113.003,193.479 113,168.5C 111.989,167.663 110.822,167.33 109.5,167.5C 109.5,166.5 109.5,165.5 109.5,164.5 Z" />
    </g>
    <g>
        <path style="opacity:1" fill="#821640"
            d="M 115.5,189.5 C 126.718,195.026 137.885,200.692 149,206.5C 147.064,197.094 150.564,191.428 159.5,189.5C 167.818,192.992 175.818,196.992 183.5,201.5C 178.833,204.167 174.167,206.833 169.5,209.5C 162.833,212.5 156.167,215.5 149.5,218.5C 142.833,215.5 136.167,212.5 129.5,209.5C 125.151,206.659 120.484,204.326 115.5,202.5C 114.206,198.066 114.206,193.733 115.5,189.5 Z" />
    </g>
    <g>
        <path style="opacity:1" fill="#460b22"
            d="M 239.5,172.5 C 239.667,184.838 239.5,197.171 239,209.5C 232.667,212.833 226.333,216.167 220,219.5C 219.617,218.944 219.117,218.611 218.5,218.5C 218.971,217.099 219.638,215.766 220.5,214.5C 226.917,212.564 232.417,209.231 237,204.5C 237.629,196.653 237.462,188.82 236.5,181C 236.303,178.176 236.969,175.676 238.5,173.5C 238.5,172.833 238.833,172.5 239.5,172.5 Z" />
    </g>
    <g>
        <path style="opacity:1" fill="#921847"
            d="M 115.5,202.5 C 120.484,204.326 125.151,206.659 129.5,209.5C 129.176,213.555 129.509,217.555 130.5,221.5C 133.167,222.833 135.833,224.167 138.5,225.5C 139.661,229.795 139.828,234.129 139,238.5C 136,236.833 133,235.167 130,233.5C 129.333,237.5 129.333,241.5 130,245.5C 133.115,247.307 136.281,248.973 139.5,250.5C 139.5,252.5 139.5,254.5 139.5,256.5C 132.734,253.618 126.067,250.451 119.5,247C 116.833,246.333 114.167,246.333 111.5,247C 110.944,247.383 110.611,247.883 110.5,248.5C 109.662,248.158 109.328,247.492 109.5,246.5C 111.138,245.841 112.805,245.174 114.5,244.5C 115.499,230.516 115.833,216.516 115.5,202.5 Z" />
    </g>
    <g>
        <path style="opacity:1" fill="#9f1a4d"
            d="M 129.5,209.5 C 136.167,212.5 142.833,215.5 149.5,218.5C 149.667,230.838 149.5,243.171 149,255.5C 145.885,253.693 142.719,252.027 139.5,250.5C 136.281,248.973 133.115,247.307 130,245.5C 129.333,241.5 129.333,237.5 130,233.5C 133,235.167 136,236.833 139,238.5C 139.828,234.129 139.661,229.795 138.5,225.5C 135.833,224.167 133.167,222.833 130.5,221.5C 129.509,217.555 129.176,213.555 129.5,209.5 Z" />
    </g>
    <g>
        <path style="opacity:1" fill="#881643"
            d="M 169.5,209.5 C 169.177,213.226 169.511,216.893 170.5,220.5C 173.167,219.167 175.833,217.833 178.5,216.5C 179.66,220.459 179.827,224.459 179,228.5C 176,230.167 173,231.833 170,233.5C 169.333,237.5 169.333,241.5 170,245.5C 173.115,243.693 176.281,242.027 179.5,240.5C 179.714,242.144 179.38,243.644 178.5,245C 169.167,249.667 159.833,254.333 150.5,259C 148.833,259.667 147.167,259.667 145.5,259C 143.593,257.878 141.593,257.045 139.5,256.5C 139.5,254.5 139.5,252.5 139.5,250.5C 142.719,252.027 145.885,253.693 149,255.5C 149.5,243.171 149.667,230.838 149.5,218.5C 156.167,215.5 162.833,212.5 169.5,209.5 Z" />
    </g>
    <g>
        <path style="opacity:1" fill="#911847"
            d="M 219.5,206.5 C 219.5,207.833 219.5,209.167 219.5,210.5C 217.473,210.662 215.473,210.495 213.5,210C 207.569,206.364 201.236,203.864 194.5,202.5C 191.167,202.5 187.833,202.5 184.5,202.5C 183.584,214.469 183.251,226.469 183.5,238.5C 182.167,239.167 180.833,239.833 179.5,240.5C 176.281,242.027 173.115,243.693 170,245.5C 169.333,241.5 169.333,237.5 170,233.5C 173,231.833 176,230.167 179,228.5C 179.827,224.459 179.66,220.459 178.5,216.5C 175.833,217.833 173.167,219.167 170.5,220.5C 169.511,216.893 169.177,213.226 169.5,209.5C 174.167,206.833 178.833,204.167 183.5,201.5C 188.692,197.691 193.859,197.691 199,201.5C 199.219,200.062 199.719,198.729 200.5,197.5C 206.734,200.784 213.067,203.784 219.5,206.5 Z" />
    </g>
    <g>
        <path style="opacity:1" fill="#b05579"
            d="M 109.5,167.5 C 110.822,167.33 111.989,167.663 113,168.5C 113.003,193.479 113.17,218.479 113.5,243.5C 112.041,243.433 110.708,243.766 109.5,244.5C 109.5,218.833 109.5,193.167 109.5,167.5 Z" />
    </g>
    <g>
        <path style="opacity:1" fill="#440b21"
            d="M 189.5,204.5 C 189.833,219.182 189.499,233.848 188.5,248.5C 176.167,254.667 163.833,260.833 151.5,267C 149.119,267.738 147.119,267.238 145.5,265.5C 156.857,260.323 168.19,254.823 179.5,249C 181.96,247.542 184.127,245.709 186,243.5C 187.182,230.869 187.848,218.203 188,205.5C 188.383,204.944 188.883,204.611 189.5,204.5 Z" />
    </g>
    <g>
        <path style="opacity:1" fill="#7a143b"
            d="M 183.5,238.5 C 184.384,242.49 183.051,245.323 179.5,247C 168.92,252.458 158.253,257.624 147.5,262.5C 136.957,259.731 126.957,255.565 117.5,250C 116.207,249.51 114.873,249.343 113.5,249.5C 112.391,249.443 111.391,249.11 110.5,248.5C 110.611,247.883 110.944,247.383 111.5,247C 114.167,246.333 116.833,246.333 119.5,247C 126.067,250.451 132.734,253.618 139.5,256.5C 141.593,257.045 143.593,257.878 145.5,259C 147.167,259.667 148.833,259.667 150.5,259C 159.833,254.333 169.167,249.667 178.5,245C 179.38,243.644 179.714,242.144 179.5,240.5C 180.833,239.833 182.167,239.167 183.5,238.5 Z" />
    </g>
    <g>
        <path style="opacity:1" fill="#621030"
            d="M 238.5,173.5 C 236.969,175.676 236.303,178.176 236.5,181C 237.462,188.82 237.629,196.653 237,204.5C 232.417,209.231 226.917,212.564 220.5,214.5C 219.638,215.766 218.971,217.099 218.5,218.5C 208.96,213.563 199.293,208.897 189.5,204.5C 188.883,204.611 188.383,204.944 188,205.5C 187.848,218.203 187.182,230.869 186,243.5C 184.127,245.709 181.96,247.542 179.5,249C 168.19,254.823 156.857,260.323 145.5,265.5C 134.516,260.675 123.849,255.341 113.5,249.5C 114.873,249.343 116.207,249.51 117.5,250C 126.957,255.565 136.957,259.731 147.5,262.5C 158.253,257.624 168.92,252.458 179.5,247C 183.051,245.323 184.384,242.49 183.5,238.5C 183.251,226.469 183.584,214.469 184.5,202.5C 187.833,202.5 191.167,202.5 194.5,202.5C 194.953,203.458 195.619,204.292 196.5,205C 203.393,207.697 210.226,210.53 217,213.5C 223.477,212.427 229.144,209.76 234,205.5C 234.827,201.541 235.327,197.541 235.5,193.5C 234.697,187.841 234.53,182.175 235,176.5C 235.422,174.574 236.589,173.574 238.5,173.5 Z" />
    </g>
</svg>